<svg xmlns="http://www.w3.org/2000/svg" version="1.1" xmlns:xlink="http://www.w3.org/1999/xlink" xmlns:svgjs="http://svgjs.dev/svgjs" width="1000" height="1000" viewBox="0 0 1000 1000"><rect width="1000" height="1000" fill="#ffffff"></rect><g transform="matrix(0.7,0,0,0.7,149.89729789926423,183.85619576884892)"><svg viewBox="0 0 273 247" data-background-color="#ffffff" preserveAspectRatio="xMidYMid meet" height="904" width="1000" xmlns="http://www.w3.org/2000/svg" xmlns:xlink="http://www.w3.org/1999/xlink"><defs></defs><g id="tight-bounds" transform="matrix(1,0,0,1,0.040053819286953285,-0.10000056084967923)"><svg viewBox="0 0 272.9198871262104 247.2" height="247.2" width="272.9198871262104"><g><svg viewBox="0 0 395.52 358.246315537957" height="247.2" width="272.9198871262104"><g transform="matrix(1,0,0,1,0,268.68643829113546)"><svg viewBox="0 0 395.52 89.55987724682156" height="89.55987724682156" width="395.52"><g><svg viewBox="0 0 395.52 89.55987724682156" height="89.55987724682156" width="395.52"><g><svg viewBox="0 0 395.52 89.55987724682156" height="89.55987724682156" width="395.52"><g transform="matrix(1,0,0,1,0,0)"><svg width="395.52" viewBox="2 -36.22999954223633 222.72999572753906 50.439998626708984" height="89.55987724682156" data-palette-color="#8b3c7f"><path d="M20.75-36.23L20.75-36.23 23.63-35.99Q24.27-27 24.27-20.8L24.27-20.8Q24.27-16.31 24.02-10.55L24.02-10.55Q23.93-8.11 23.63-6.42 23.34-4.74 22.61-3.13 21.88-1.51 20.63-0.56 19.38 0.39 17.38 0.95 15.38 1.51 12.55 1.51L12.55 1.51Q10.5 1.51 8.94 1.15 7.37 0.78 6.32 0.2 5.27-0.39 4.54-1.34 3.81-2.29 3.39-3.32 2.98-4.35 2.76-5.76 2.54-7.18 2.44-8.45 2.34-9.72 2.25-11.43L2.25-11.43Q2.25-11.57 2.25-11.62L2.25-11.62Q2-17.58 2-21.73L2-21.73Q2-25.24 2.29-35.89L2.29-35.89 4.98-35.3Q5.08-30.81 5.52-22.49 5.96-14.16 6.1-10.64L6.1-10.64Q6.15-8.98 6.25-8.01 6.35-7.03 6.71-5.76 7.08-4.49 7.71-3.81 8.35-3.13 9.52-2.64 10.69-2.15 12.4-2.15 14.11-2.15 15.36-2.37 16.6-2.59 17.41-3.17 18.21-3.76 18.73-4.35 19.24-4.93 19.53-6.08 19.82-7.23 19.95-8.08 20.07-8.94 20.21-10.6L20.21-10.6Q20.56-14.79 20.61-24.17 20.65-33.54 20.75-36.23ZM28.22 11.77L28.81-25.68 31.54-25.2Q31.54-24.17 31.59-23.68L31.59-23.68Q34.27-25.39 37.01-25.39L37.01-25.39Q41.45-25.39 43.94-21.58 46.43-17.77 46.43-12.94L46.43-12.94Q46.43-10.5 46.07-8.28 45.7-6.05 44.77-3.74 43.85-1.42 41.92-0.02 39.99 1.37 37.25 1.37L37.25 1.37Q34.67 1.37 32.27 0L32.27 0Q32.47 8.54 32.61 12.7L32.61 12.7Q32.18 14.21 30.91 14.21L30.91 14.21Q30.03 14.21 29.22 13.5 28.42 12.79 28.22 11.77L28.22 11.77ZM31.98-20.51L31.98-20.51 32.13-4.74Q32.71-3.56 33.93-2.86 35.15-2.15 36.62-2.15L36.62-2.15Q38.52-2.15 39.87-3.37 41.21-4.59 41.77-6.62 42.33-8.64 42.55-10.4 42.77-12.16 42.77-14.11L42.77-14.11Q42.77-22.41 37.16-22.41L37.16-22.41Q35.35-22.41 33.81-21.9 32.27-21.39 31.98-20.51ZM63.72-19.34L63.72-19.34Q63.91-16.6 64.01-12.87 64.11-9.13 64.18-5.32 64.25-1.51 64.3-0.15L64.3-0.15Q63.23 0.15 62.3 0.15L62.3 0.15Q61.57 0.15 60.93-0.1L60.93-0.1Q60.79-2 60.74-4.44 60.69-6.88 60.69-8.76 60.69-10.64 60.62-12.7 60.54-14.75 60.35-16.21 60.15-17.68 59.76-18.92 59.37-20.17 58.66-20.85 57.95-21.53 56.93-21.58L56.93-21.58Q55.9-21.58 55.27-21.14 54.63-20.7 53.9-19.53L53.9-19.53 53.9-0.2Q53.17 0.2 52.14 0.2L52.14 0.2Q51.36 0.2 50.39-0.05L50.39-0.05Q50.53-3.13 50.58-12.16 50.63-21.19 50.97-25.54L50.97-25.54 53.17-25.05 53.32-22.56Q54.78-24.85 57.03-24.85L57.03-24.85Q60.35-24.85 62.64-21.92L62.64-21.92Q64.06-24.85 67.23-24.85L67.23-24.85Q68.5-24.85 69.43-24.56L69.43-24.56Q74.75-23.05 74.75-10.94L74.75-10.94Q74.75-9.18 74.63-6.23 74.51-3.27 74.51-2.25L74.51-2.25Q74.51-0.88 74.65 0L74.65 0Q72.11 0.68 71.58 0.68L71.58 0.68Q71.09 0.68 70.89 0.59L70.89 0.59Q70.7-0.05 70.7-1.76L70.7-1.76Q70.7-2.83 70.84-6.18 70.99-9.52 70.99-11.43L70.99-11.43Q70.99-21.58 66.99-21.68L66.99-21.68Q66.06-21.63 65.38-21.12 64.69-20.61 63.72-19.34ZM93.45-35.06L93.45-35.06 95.64-35.64Q95.64-34.08 95.69-33.89L95.69-33.89Q98.48-35.74 103.51-35.74L103.51-35.74Q108.93-35.74 111.61-32.35 114.3-28.96 114.3-22.85L114.3-22.85Q114.3-17.43 111.66-13.87 109.02-10.3 103.7-10.3L103.7-10.3Q102.82-10.3 96.67-10.89L96.67-10.89Q96.77-7.32 97.06 0.2L97.06 0.2Q96.62 1.71 95.35 1.71L95.35 1.71Q94.47 1.71 93.67 1 92.86 0.29 92.67-0.73L92.67-0.73Q92.81-4.83 92.98-16.7 93.15-28.56 93.45-35.06ZM96.13-30.62L96.13-30.62 96.52-15.38Q99.21-13.92 102.72-13.92L102.72-13.92Q106.09-13.92 108.44-16.46 110.78-18.99 110.78-22.66L110.78-22.66Q110.78-26.61 108.34-29.79 105.9-32.96 102.24-32.96L102.24-32.96Q99.26-32.96 96.13-30.62ZM134.41-18.6L134.41-18.6 132.26-18.75Q131.24-21.48 128.8-21.48L128.8-21.48Q127.72-21.48 126.53-21 125.33-20.51 124.55-20 123.77-19.48 122.5-18.51L122.5-18.51Q122.5-17.82 122.47-14.06 122.45-10.3 122.52-5.71 122.59-1.12 122.69-0.78L122.69-0.78Q122.25 0.68 120.98 0.68L120.98 0.68Q120.1 0.68 119.3-0.02 118.49-0.73 118.3-1.76L118.3-1.76Q119.23-17.43 119.96-25.44L119.96-25.44 122.16-24.95 122.3-21.68Q125.72-24.51 128.16-24.51L128.16-24.51Q130.85-24.51 132.68-23.29 134.51-22.07 134.51-19.73L134.51-19.73Q134.51-18.99 134.41-18.6ZM136.46-10.4L136.46-10.4Q136.46-12.35 136.87-14.75 137.29-17.14 138.12-19.78 138.95-22.41 140.61-24.17 142.27-25.93 144.47-25.93L144.47-25.93Q149.15-25.93 151.99-21.7 154.82-17.48 154.82-12.3L154.82-12.3Q154.82-10.11 154.36-7.93 153.89-5.76 152.91-3.66 151.94-1.56 150.11-0.17 148.28 1.22 145.83 1.42L145.83 1.42Q141.34 0.83 138.9-2.42 136.46-5.66 136.46-10.4ZM144.76-23.39L144.76-23.39Q143.05-23.19 141.88-20.26 140.71-17.33 140.37-14.58 140.02-11.82 140.02-9.72L140.02-9.72Q140.02-6.98 141.71-4.66 143.39-2.34 145.49-2.34L145.49-2.34Q147.01-2.34 148.23-3.52 149.45-4.69 150.16-6.42 150.86-8.15 151.23-9.91 151.6-11.67 151.6-13.04L151.6-13.04Q151.6-17.04 149.79-20.02 147.98-23 144.76-23.39ZM152.77 9.13L152.77 9.13 152.77 7.37Q154.52 6.98 155.79 5.88 157.06 4.79 157.72 3.49 158.38 2.2 158.75 0.2 159.11-1.81 159.19-3.3 159.26-4.79 159.26-6.98L159.26-6.98Q159.26-8.98 159.21-14.09 159.16-19.19 159.11-23.39L159.11-23.39Q159.31-25.54 160.72-25.54L160.72-25.54Q161.46-25.54 162.12-24.8 162.78-24.07 162.82-22.95L162.82-22.95Q162.82-21.63 162.85-18.82 162.87-16.02 162.87-14.5L162.87-14.5Q162.87-14.36 162.9-13.43 162.92-12.5 162.92-11.72L162.92-11.72Q162.92-4.88 162.43-0.59 161.95 3.71 160.85 5.88 159.75 8.06 158.38 8.79 157.01 9.52 154.87 9.52L154.87 9.52Q153.94 9.52 152.77 9.13ZM159.75-33.94L159.75-33.94Q161.07-33.94 161.97-32.79 162.87-31.64 162.87-30.18L162.87-30.18Q162.87-29.1 162.36-28.44 161.85-27.78 160.97-27.78L160.97-27.78Q159.6-27.78 158.82-28.91 158.04-30.03 158.04-31.54L158.04-31.54Q158.04-32.62 158.48-33.28 158.92-33.94 159.75-33.94ZM186.55-4.74L186.55-4.74 187.04-2.59Q184.89-1.81 180.67-0.85 176.44 0.1 174.39 0.1L174.39 0.1Q172.29 0.1 170.73-1.29 169.17-2.69 168.39-4.86 167.61-7.03 167.24-9.16 166.87-11.28 166.87-13.33L166.87-13.33Q166.87-25.54 177.91-25.54L177.91-25.54Q180.55-25.54 182.55-23.85 184.55-22.17 184.55-19.48L184.55-19.48Q184.55-18.02 183.74-16.89 182.94-15.77 181.79-15.11 180.64-14.45 178.86-13.92 177.08-13.38 175.71-13.13 174.35-12.89 172.44-12.6 170.54-12.3 169.8-12.16L169.8-12.16Q169.85-10.74 169.98-9.67 170.1-8.59 170.46-7.35 170.83-6.1 171.44-5.3 172.05-4.49 173.12-3.96 174.2-3.42 175.66-3.42L175.66-3.42Q177.42-3.42 179.96-3.74 182.5-4.05 184.48-4.39 186.45-4.74 186.55-4.74ZM170-15.19L170-15.19Q176.64-17.09 180.89-19.19L180.89-19.19Q180.55-20.8 179.96-21.53 179.37-22.27 178.2-22.27L178.2-22.27Q175.22-22.27 172.81-20.21 170.39-18.16 170-15.19ZM205.45-24.22L205.45-24.22 205.2-22.12Q203.15-22.41 201.69-22.41L201.69-22.41Q198.32-22.41 196.12-20.39 193.92-18.36 193.12-15.6 192.31-12.84 192.31-9.47L192.31-9.47Q192.31-7.91 192.51-6.69 192.7-5.47 193.21-4.3 193.73-3.13 194.83-2.47 195.92-1.81 197.54-1.81L197.54-1.81Q199.68-1.81 203-2.64L203-2.64Q204.03-3.03 204.62-3.03L204.62-3.03Q205.79-3.03 206.03-0.29L206.03-0.29Q201.74 1.07 198.07 1.07L198.07 1.07Q192.75 1.07 190.87-1.54 188.99-4.15 188.99-10.01L188.99-10.01Q188.99-13.43 189.46-15.99 189.92-18.55 191.09-20.78 192.26-23 194.48-24.17 196.71-25.34 199.93-25.34L199.93-25.34Q203.54-25.34 205.45-24.22ZM221.85-23.63L221.85-23.63 222.39-21.44Q221.07-21.34 218.33-20.92 215.6-20.51 214.23-20.41L214.23-20.41Q214.48-18.7 214.53-15.92 214.57-13.13 214.65-11.11 214.72-9.08 215.09-7.06 215.45-5.03 216.6-3.96 217.75-2.88 219.7-2.88L219.7-2.88Q221.17-2.88 223.36-3.56L223.36-3.56Q224.29-1.76 224.73-0.93L224.73-0.93Q220.87 0.44 216.92 0.44L216.92 0.44Q215.45 0.44 214.38-0.44 213.31-1.32 212.72-2.64 212.13-3.96 211.77-5.98 211.4-8.01 211.3-9.81 211.21-11.62 211.21-13.96L211.21-13.96Q211.21-15.23 211.23-17.48 211.25-19.73 211.25-20.56L211.25-20.56Q210.77-20.51 208.96-20.48 207.15-20.46 206.86-20.46L206.86-20.46Q206.52-23.73 206.52-23.83L206.52-23.83Q206.86-23.73 207.64-23.73L207.64-23.73Q208.08-23.73 209.06-23.8 210.03-23.88 210.52-23.88L210.52-23.88Q210.72-23.88 211.03-23.85 211.35-23.83 211.45-23.83L211.45-23.83Q211.64-29.2 211.89-32.57L211.89-32.57 214.09-32.03Q214.14-30.86 214.16-29.52 214.18-28.17 214.21-26.54 214.23-24.9 214.23-24.02L214.23-24.02Q215.5-23.93 218.04-23.83 220.58-23.73 221.85-23.63Z" opacity="1" transform="matrix(1,0,0,1,0,0)" fill="#8b3c7f" class="undefined-text-0" data-fill-palette-color="primary" id="text-0"></path></svg></g></svg></g></svg></g></svg></g><g transform="matrix(1,0,0,1,73.98824964489262,0)"><svg viewBox="0 0 247.54350071021474 247.5435007102148" height="247.5435007102148" width="247.54350071021474"><g><svg></svg></g><g id="icon-0"><svg viewBox="0 0 247.54350071021474 247.5435007102148" height="247.5435007102148" width="247.54350071021474"><g><path d="M74.263 247.543c-41.014 0-74.263-33.249-74.263-74.263v-99.017c0-41.014 33.249-74.263 74.263-74.263h99.017c41.014 0 74.263 33.249 74.264 74.263v99.017c0 41.014-33.249 74.263-74.264 74.263z" fill="#0074d9" data-fill-palette-color="accent"></path></g><g transform="matrix(1,0,0,1,74.60743140973118,49.50870014204297)"><svg viewBox="0 0 98.32863789075239 148.52610042612886" height="148.52610042612886" width="98.32863789075239"><g><svg xmlns="http://www.w3.org/2000/svg" xmlns:xlink="http://www.w3.org/1999/xlink" version="1.1" x="0" y="0" viewBox="24.761856079101562 5 59.5826416015625 90" enable-background="new 0 0 100 100" xml:space="preserve" height="148.52610042612886" width="98.32863789075239" class="icon-x-0" data-fill-palette-color="quaternary" id="x-0"><g fill="#ffffff" data-fill-palette-color="quaternary"><path d="M73.76 35.603C86.875 48 91.5 66.25 65.633 82.379c3.64-4.928 5.654-9.794 6.096-14.669 0.951-10.516-5.606-19.072-12.835-26.752C48.298 29.7 47.51 18.84 56.413 6.782 54.578 22.641 64.6 26.944 73.76 35.603zM45.288 93.716c6.184-13.053 7.276-20.302-8.197-34.939-4.204-3.977-7.451-8.029-9.71-12.086-2.881 6.435-5.164 20.081 3.244 27.935C36.312 79.938 44.125 83.125 45.288 93.716zM56.709 43.014C48.183 33.954 41.999 21.253 54 5 21.497 17.692 19.625 38.125 39.151 56.597 55.603 72.158 54.75 80.75 48 95 79.875 71.5 68.709 55.764 56.709 43.014z" fill="#ffffff" data-fill-palette-color="quaternary"></path></g><g display="none" fill="#ffffff" data-fill-palette-color="quaternary"><path display="inline" d="M54 5C16.75 17.5 14.875 56.5 26.75 70.762c10.558 12.68 15.407 7.949 19.675 20.824" fill="#ffffff" data-fill-palette-color="quaternary"></path><line display="inline" x1="56.988" y1="5.261" x2="45.528" y2="136.262" fill="#ffffff" data-fill-palette-color="quaternary"></line><line display="inline" x1="54.131" y1="3.502" x2="42.67" y2="134.502" fill="#ffffff" data-fill-palette-color="quaternary"></line><path display="inline" d="M42.875 76" fill="#ffffff" data-fill-palette-color="quaternary"></path></g></svg></g></svg></g></svg></g></svg></g><g></g></svg></g></svg><rect width="272.9198871262104" height="247.2" fill="none" stroke="none" visibility="hidden"></rect></g></svg></g></svg>